# xmcd CD database file
#
# Track frame offsets:
#	150
#	15782
#	32332
#	49255
#	75870
#	95640
#	115047
#	135780
#	158257
#	179142
#	195040
#	213587
#
# Disc length: 2989 seconds
#
# Revision: 0
# Processed by: cddbd v1.5.2PL0 Copyright (c) Steve Scherf et al.
# Submitted via: CDex 1.51
#
DISCID=7c0bab0c
DTITLE=Majorie Barnes - Once You've Been In Love
DYEAR=1993
DGENRE=Jazz
TTITLE0=Watch what happens
TTITLE1=Fascinating rhythm
TTITLE2=Once you've been in love
TTITLE3=The surrey with the fringe on top
TTITLE4=He's my guy
TTITLE5=Isn't it a pity
TTITLE6=I've got the world on a string
TTITLE7=The beauty and the beast
TTITLE8=A little tear
TTITLE9=I can't believe that you're in love ith me
TTITLE10=No more blues
TTITLE11=Never will I marry
EXTD=YEAR: 1993
EXTT0=
EXTT1=
EXTT2=
EXTT3=
EXTT4=
EXTT5=
EXTT6=
EXTT7=
EXTT8=
EXTT9=
EXTT10=
EXTT11=
PLAYORDER=
